<svg width="30" height="30" viewBox="0 0 30 30" fill="none" xmlns="http://www.w3.org/2000/svg">
<path d="M11.5882 20.0729L14.5721 24.9974L20.1274 15.9893H9.09766" stroke="#0F1128" stroke-miterlimit="10" stroke-linecap="round" stroke-linejoin="round"/>
<path d="M14.6056 6.97949H3.58398L9.05843 15.9877" stroke="#0F1128" stroke-miterlimit="10" stroke-linecap="round" stroke-linejoin="round"/>
<path d="M25.631 6.97949H14.6094L20.0838 15.9877L23.1081 11.0712" stroke="#0F1128" stroke-miterlimit="10" stroke-linecap="round" stroke-linejoin="round"/>
<path d="M20.1251 15.9877L14.6507 6.97949L11.5859 11.9607" stroke="#0F1128" stroke-miterlimit="10" stroke-linecap="round" stroke-linejoin="round"/>
<path d="M14.574 27.9888C16.2264 27.9888 17.5659 26.6492 17.5659 24.9968C17.5659 23.3444 16.2264 22.0049 14.574 22.0049C12.9216 22.0049 11.582 23.3444 11.582 24.9968C11.582 26.6492 12.9216 27.9888 14.574 27.9888Z" fill="white" stroke="#0F1128" stroke-miterlimit="10" stroke-linecap="round" stroke-linejoin="round"/>
<path d="M14.574 9.97314C16.2264 9.97314 17.5659 8.6336 17.5659 6.9812C17.5659 5.32879 16.2264 3.98926 14.574 3.98926C12.9216 3.98926 11.582 5.32879 11.582 6.9812C11.582 8.6336 12.9216 9.97314 14.574 9.97314Z" fill="#4CCE75" stroke="#0F1128" stroke-miterlimit="10"/>
<path d="M25.6326 9.97314C27.285 9.97314 28.6245 8.6336 28.6245 6.9812C28.6245 5.32879 27.285 3.98926 25.6326 3.98926C23.9802 3.98926 22.6406 5.32879 22.6406 6.9812C22.6406 8.6336 23.9802 9.97314 25.6326 9.97314Z" fill="white" stroke="#0F1128" stroke-miterlimit="10" stroke-linecap="round" stroke-linejoin="round"/>
<path d="M3.5896 9.97314C5.242 9.97314 6.58153 8.6336 6.58153 6.9812C6.58153 5.32879 5.242 3.98926 3.5896 3.98926C1.93719 3.98926 0.597656 5.32879 0.597656 6.9812C0.597656 8.6336 1.93719 9.97314 3.5896 9.97314Z" fill="white" stroke="#0F1128" stroke-miterlimit="10" stroke-linecap="round" stroke-linejoin="round"/>
<path d="M9.0935 18.981C10.7459 18.981 12.0854 17.6414 12.0854 15.989C12.0854 14.3366 10.7459 12.9971 9.0935 12.9971C7.4411 12.9971 6.10156 14.3366 6.10156 15.989C6.10156 17.6414 7.4411 18.981 9.0935 18.981Z" fill="#4CCE75" stroke="#0F1128" stroke-miterlimit="10"/>
<path d="M20.1208 18.979C21.7732 18.979 23.1128 17.6395 23.1128 15.9871C23.1128 14.3347 21.7732 12.9951 20.1208 12.9951C18.4684 12.9951 17.1289 14.3347 17.1289 15.9871C17.1289 17.6395 18.4684 18.979 20.1208 18.979Z" fill="#4CCE75" stroke="#0F1128" stroke-miterlimit="10"/>
</svg>
