<svg width="30" height="30" viewBox="0 0 30 30" fill="none" xmlns="http://www.w3.org/2000/svg">
<path d="M14.8199 3.51172C10.4976 3.51172 7 7.00935 7 11.3316C7 15.6539 14.8199 27.5117 14.8199 27.5117C14.8199 27.5117 22.6398 15.6468 22.6398 11.3316C22.6398 7.01646 19.1422 3.51172 14.8199 3.51172ZM14.8199 16.116C12.3815 16.116 10.4052 14.1397 10.4052 11.7013C10.4052 9.2629 12.3815 7.27949 14.8199 7.27949C17.2583 7.27949 19.2346 9.25579 19.2346 11.6942C19.2346 14.1326 17.2583 16.116 14.8199 16.116Z" fill="#4CCE75"/>
<path d="M14.8131 16.1165C17.2513 16.1165 19.2278 14.14 19.2278 11.7018C19.2278 9.26363 17.2513 7.28711 14.8131 7.28711C12.375 7.28711 10.3984 9.26363 10.3984 11.7018C10.3984 14.14 12.375 16.1165 14.8131 16.1165Z" stroke="#0F1128" stroke-miterlimit="10" stroke-linecap="round" stroke-linejoin="round"/>
<path d="M16.1635 25.642C16.1635 25.642 22.6398 15.6539 22.6398 11.3316C22.6398 7.00935 19.1422 3.51172 14.8199 3.51172C10.4976 3.51172 7 7.00935 7 11.3316C7 15.6539 14.8199 27.5117 14.8199 27.5117" stroke="#0F1128" stroke-miterlimit="10" stroke-linecap="round" stroke-linejoin="round"/>
</svg>
