<svg width="30" height="30" viewBox="0 0 30 30" fill="none" xmlns="http://www.w3.org/2000/svg">
<path d="M24.1901 21.9878L18.1848 28H6V4H24.1901V19.8396" fill="white"/>
<path d="M24.1901 21.9878L18.1848 28H6V4H24.1901V19.8396" stroke="#0F1128" stroke-miterlimit="10" stroke-linecap="round" stroke-linejoin="round"/>
<path d="M18.1855 21.9873H22.1472H24.1908L18.1855 27.9995V21.9873Z" fill="white" stroke="#0F1128" stroke-miterlimit="10" stroke-linecap="round" stroke-linejoin="round"/>
<path d="M17.3517 18.4074C17.3517 19.1606 17.1494 19.872 16.7937 20.4858L13.2227 18.4074V14.2783C15.5034 14.2783 17.3517 16.1266 17.3517 18.4074Z" fill="white"/>
<path d="M17.3649 18.4076C17.3649 20.6953 15.5097 22.5436 13.2219 22.5436C10.9342 22.5436 9.08594 20.6953 9.08594 18.4076C9.08594 16.1199 10.9342 14.2646 13.2219 14.2646C15.5097 14.2646 17.3649 16.1199 17.3649 18.4076ZM16.793 20.4861C17.1487 19.8723 17.351 19.1609 17.351 18.4076C17.351 16.1269 15.5027 14.2786 13.2219 14.2786V18.4076L16.793 20.4861Z" fill="#4CCE75"/>
<path d="M17.3649 18.4076C17.3649 16.1199 15.5097 14.2646 13.2219 14.2646C10.9342 14.2646 9.08594 16.1199 9.08594 18.4076C9.08594 20.6953 10.9342 22.5436 13.2219 22.5436C15.5097 22.5436 17.3649 20.6953 17.3649 18.4076Z" stroke="#0F1128" stroke-linecap="round" stroke-linejoin="round"/>
<path d="M13.2227 14.2783C15.5034 14.2783 17.3517 16.1266 17.3517 18.4074C17.3517 19.1606 17.1494 19.872 16.7937 20.4858L13.2227 18.4074V14.2783V14.2783Z" stroke="#0F1128" stroke-linecap="round" stroke-linejoin="round"/>
<path d="M9 7.9082H20.6989" stroke="#0F1128" stroke-miterlimit="10" stroke-linecap="round" stroke-linejoin="round"/>
<path d="M9.02344 11.1162H20.6556" stroke="#0F1128" stroke-miterlimit="10" stroke-linecap="round" stroke-linejoin="round"/>
</svg>
