<svg width="30" height="30" viewBox="0 0 30 30" fill="none" xmlns="http://www.w3.org/2000/svg">
<path d="M24.1043 14.7764C24.1043 19.9081 19.6047 24.3324 14.6762 24.3324C9.74772 24.3324 5.75977 20.1714 5.75977 15.0397C5.75977 9.90808 9.75524 5.74707 14.6762 5.74707C18.4309 5.74707 21.6965 7.85391 23.0133 11.27C23.0359 11.3227 21.4783 14.6786 21.5987 14.5281" fill="#4CCE75"/>
<path d="M14.7832 5.58984V8.41151" stroke="#0F1128" stroke-miterlimit="10" stroke-linecap="round" stroke-linejoin="round"/>
<path d="M8.38086 8.14746L9.52457 9.29118" stroke="#0F1128" stroke-miterlimit="10" stroke-linecap="round" stroke-linejoin="round"/>
<path d="M5.85742 14.5498H8.64146" stroke="#0F1128" stroke-miterlimit="10" stroke-linecap="round" stroke-linejoin="round"/>
<path d="M14.7832 23.7015V20.6992" stroke="#0F1128" stroke-miterlimit="10" stroke-linecap="round" stroke-linejoin="round"/>
<path d="M21.2449 21.0203L20.041 19.8164" stroke="#0F1128" stroke-miterlimit="10" stroke-linecap="round" stroke-linejoin="round"/>
<path d="M10.7734 10.541L14.784 14.5515L16.8758 12.55" stroke="#0F1128" stroke-miterlimit="10" stroke-linecap="round" stroke-linejoin="round"/>
<path d="M9.5232 19.8115L8.39453 20.9402" stroke="#0F1128" stroke-miterlimit="10" stroke-linecap="round" stroke-linejoin="round"/>
<path d="M22.299 6.33366C20.2147 4.4375 17.5134 3.3916 14.6918 3.3916C8.45399 3.3916 3.375 8.4706 3.375 14.7084C3.375 20.9461 8.45399 26.0251 14.6918 26.0251C20.9295 26.0251 26.0085 20.9461 26.0085 14.7084V14.5428L28.9129 15.5661C29.0559 15.6188 29.2214 15.5661 29.3117 15.4382C29.402 15.3103 29.3945 15.1448 29.2967 15.0244L24.4133 8.89196C24.3381 8.80167 24.2177 8.749 24.0973 8.76405C23.9769 8.7791 23.8716 8.85434 23.8264 8.96721L23.6609 9.33591L22.3065 12.3156H22.314L20.6737 15.9348C20.6135 16.0703 20.6436 16.2283 20.7564 16.3336C20.8693 16.4314 21.0273 16.454 21.1628 16.3788L23.691 14.9416L23.7587 14.9266L23.8189 15.062C23.8189 20.0206 19.5751 23.7903 14.609 23.7903C9.65038 23.7903 5.62481 19.7723 5.62481 14.8062C5.62481 9.84757 9.64285 5.82199 14.609 5.82199C17.0243 5.82199 19.2365 6.64968 20.8693 8.10942" fill="white"/>
<path d="M22.299 6.33366C20.2147 4.4375 17.5134 3.3916 14.6918 3.3916C8.45399 3.3916 3.375 8.4706 3.375 14.7084C3.375 20.9461 8.45399 26.0251 14.6918 26.0251C20.9295 26.0251 26.0085 20.9461 26.0085 14.7084V14.5428L28.9129 15.5661C29.0559 15.6188 29.2214 15.5661 29.3117 15.4382C29.402 15.3103 29.3945 15.1448 29.2967 15.0244L24.4133 8.89196C24.3381 8.80167 24.2177 8.749 24.0973 8.76405C23.9769 8.7791 23.8716 8.85434 23.8264 8.96721L23.6609 9.33591L22.3065 12.3156H22.314L20.6737 15.9348C20.6135 16.0703 20.6436 16.2283 20.7564 16.3336C20.8693 16.4314 21.0273 16.454 21.1628 16.3788L23.691 14.9416L23.7587 14.9266L23.8189 15.062C23.8189 20.0206 19.5751 23.7903 14.609 23.7903C9.65038 23.7903 5.62481 19.7723 5.62481 14.8062C5.62481 9.84757 9.64285 5.82199 14.609 5.82199C17.0243 5.82199 19.2365 6.64968 20.8693 8.10942" stroke="#0F1128" stroke-miterlimit="10" stroke-linecap="round" stroke-linejoin="round"/>
</svg>
