<svg width="30" height="30" viewBox="0 0 30 30" fill="none" xmlns="http://www.w3.org/2000/svg">
<path d="M8.58594 21.1295C8.58594 24.0605 10.9624 26.437 13.8935 26.437H17.346H23.4127C24.4359 26.437 25.2743 25.5986 25.2743 24.5754C25.2743 23.5522 24.4359 22.7138 23.4127 22.7138H21.7821H23.9408C24.964 22.7138 25.8024 21.8754 25.8024 20.8522C25.8024 19.829 24.964 18.9906 23.9408 18.9906H22.3036H24.4755C25.4987 18.9906 26.3371 18.1522 26.3371 17.129C26.3371 16.1058 25.4987 15.274 24.4821 15.2674C24.5613 15.2674 22.7591 15.274 22.8317 15.2674H24.4821C24.6009 15.2674 24.8452 15.2278 24.8584 15.2278C25.7033 15.0562 26.3437 14.3036 26.3437 13.4058C26.3437 12.3826 25.5053 11.5442 24.4821 11.5442H17.61C17.61 11.5442 19.9139 8.82447 18.257 5.20031C17.5572 3.66878 16.633 3.44434 15.9267 3.44434C14.8639 3.44434 14.8507 5.56998 14.448 6.82425C13.0683 11.135 10.0382 14.198 8.58594 14.198V21.1295Z" fill="white" stroke="#0F1128" stroke-miterlimit="10" stroke-linecap="round" stroke-linejoin="round"/>
<path d="M7.01113 26.4451H5.4664C4.60162 26.4451 3.88867 25.7322 3.88867 24.8674V14.193C3.88867 13.3282 4.60162 12.6152 5.4664 12.6152H7.00453C7.86931 12.6152 8.58226 13.3282 8.58226 14.193V24.8674C8.58886 25.7322 7.87591 26.4451 7.01113 26.4451Z" fill="#4CCE75" stroke="#0F1128" stroke-miterlimit="10"/>
</svg>
