<svg width="68" height="19" viewBox="0 0 68 19" fill="none" xmlns="http://www.w3.org/2000/svg">
<path d="M0.444 6V1.74H2.25C2.446 1.74 2.626 1.78 2.79 1.86C2.958 1.94 3.102 2.048 3.222 2.184C3.342 2.32 3.436 2.472 3.504 2.64C3.572 2.808 3.606 2.98 3.606 3.156C3.606 3.396 3.55 3.624 3.438 3.84C3.326 4.056 3.17 4.232 2.97 4.368C2.774 4.504 2.544 4.572 2.28 4.572H1.272V6H0.444ZM1.272 3.846H2.232C2.384 3.846 2.51 3.784 2.61 3.66C2.714 3.532 2.766 3.364 2.766 3.156C2.766 2.936 2.708 2.766 2.592 2.646C2.476 2.526 2.344 2.466 2.196 2.466H1.272V3.846ZM5.61183 6.06C5.26783 6.06 4.97183 5.986 4.72383 5.838C4.47983 5.686 4.29183 5.486 4.15983 5.238C4.02783 4.99 3.96183 4.722 3.96183 4.434C3.96183 4.142 4.02783 3.872 4.15983 3.624C4.29583 3.376 4.48583 3.178 4.72983 3.03C4.97783 2.878 5.27183 2.802 5.61183 2.802C5.95183 2.802 6.24383 2.878 6.48783 3.03C6.73583 3.178 6.92583 3.376 7.05783 3.624C7.18983 3.872 7.25583 4.142 7.25583 4.434C7.25583 4.722 7.18983 4.99 7.05783 5.238C6.92583 5.486 6.73583 5.686 6.48783 5.838C6.24383 5.986 5.95183 6.06 5.61183 6.06ZM4.78983 4.434C4.78983 4.618 4.82583 4.782 4.89783 4.926C4.96983 5.066 5.06783 5.176 5.19183 5.256C5.31583 5.336 5.45583 5.376 5.61183 5.376C5.76383 5.376 5.90183 5.336 6.02583 5.256C6.14983 5.172 6.24783 5.06 6.31983 4.92C6.39583 4.776 6.43383 4.612 6.43383 4.428C6.43383 4.248 6.39583 4.088 6.31983 3.948C6.24783 3.804 6.14983 3.692 6.02583 3.612C5.90183 3.528 5.76383 3.486 5.61183 3.486C5.45583 3.486 5.31583 3.528 5.19183 3.612C5.06783 3.692 4.96983 3.804 4.89783 3.948C4.82583 4.088 4.78983 4.25 4.78983 4.434ZM11.713 2.856H12.475L11.161 6H10.489L9.96103 4.65L9.44503 6H8.76703L7.45903 2.856H8.21503L9.15103 5.232L9.51703 4.206L8.97103 2.862H9.63703L9.96103 3.822L10.291 2.862H10.957L10.411 4.206L10.783 5.232L11.713 2.856ZM14.3188 6.06C13.9788 6.06 13.6848 5.986 13.4368 5.838C13.1928 5.69 13.0028 5.494 12.8668 5.25C12.7308 5.002 12.6628 4.734 12.6628 4.446C12.6628 4.15 12.7288 3.878 12.8608 3.63C12.9968 3.378 13.1888 3.178 13.4368 3.03C13.6848 2.878 13.9808 2.802 14.3248 2.802C14.6688 2.802 14.9628 2.878 15.2068 3.03C15.4508 3.178 15.6368 3.376 15.7648 3.624C15.8968 3.868 15.9628 4.132 15.9628 4.416C15.9628 4.52 15.9568 4.61 15.9448 4.686H13.5148C13.5348 4.93 13.6248 5.122 13.7848 5.262C13.9488 5.402 14.1368 5.472 14.3488 5.472C14.5088 5.472 14.6588 5.434 14.7988 5.358C14.9428 5.278 15.0408 5.174 15.0928 5.046L15.7828 5.238C15.6668 5.478 15.4808 5.676 15.2248 5.832C14.9688 5.984 14.6668 6.06 14.3188 6.06ZM13.4968 4.176H15.1408C15.1168 3.94 15.0268 3.75 14.8708 3.606C14.7188 3.458 14.5328 3.384 14.3128 3.384C14.0968 3.384 13.9108 3.458 13.7548 3.606C13.6028 3.75 13.5168 3.94 13.4968 4.176ZM18.4446 3.552C18.2006 3.552 17.9826 3.6 17.7906 3.696C17.5986 3.788 17.4606 3.922 17.3766 4.098V6H16.5726V2.856H17.3106V3.528C17.4186 3.312 17.5586 3.142 17.7306 3.018C17.9066 2.894 18.0906 2.826 18.2826 2.814C18.3666 2.814 18.4206 2.816 18.4446 2.82V3.552ZM20.4299 6.06C20.0899 6.06 19.7959 5.986 19.5479 5.838C19.3039 5.69 19.1139 5.494 18.9779 5.25C18.8419 5.002 18.7739 4.734 18.7739 4.446C18.7739 4.15 18.8399 3.878 18.9719 3.63C19.1079 3.378 19.2999 3.178 19.5479 3.03C19.7959 2.878 20.0919 2.802 20.4359 2.802C20.7799 2.802 21.0739 2.878 21.3179 3.03C21.5619 3.178 21.7479 3.376 21.8759 3.624C22.0079 3.868 22.0739 4.132 22.0739 4.416C22.0739 4.52 22.0679 4.61 22.0559 4.686H19.6259C19.6459 4.93 19.7359 5.122 19.8959 5.262C20.0599 5.402 20.2479 5.472 20.4599 5.472C20.6199 5.472 20.7699 5.434 20.9099 5.358C21.0539 5.278 21.1519 5.174 21.2039 5.046L21.8939 5.238C21.7779 5.478 21.5919 5.676 21.3359 5.832C21.0799 5.984 20.7779 6.06 20.4299 6.06ZM19.6079 4.176H21.2519C21.2279 3.94 21.1379 3.75 20.9819 3.606C20.8299 3.458 20.6439 3.384 20.4239 3.384C20.2079 3.384 20.0219 3.458 19.8659 3.606C19.7139 3.75 19.6279 3.94 19.6079 4.176ZM22.4917 4.428C22.4917 4.128 22.5517 3.854 22.6717 3.606C22.7917 3.358 22.9577 3.162 23.1697 3.018C23.3817 2.874 23.6237 2.802 23.8957 2.802C24.1277 2.802 24.3357 2.86 24.5197 2.976C24.7077 3.088 24.8537 3.232 24.9577 3.408V1.62H25.7617V5.1C25.7617 5.188 25.7757 5.25 25.8037 5.286C25.8317 5.318 25.8797 5.338 25.9477 5.346V6C25.8037 6.028 25.6897 6.042 25.6057 6.042C25.4617 6.042 25.3417 6.006 25.2457 5.934C25.1537 5.862 25.1017 5.768 25.0897 5.652L25.0777 5.454C24.9617 5.65 24.8037 5.8 24.6037 5.904C24.4077 6.008 24.2017 6.06 23.9857 6.06C23.6937 6.06 23.4357 5.988 23.2117 5.844C22.9877 5.696 22.8117 5.5 22.6837 5.256C22.5557 5.008 22.4917 4.732 22.4917 4.428ZM24.9577 4.848V4.098C24.8937 3.922 24.7837 3.776 24.6277 3.66C24.4717 3.544 24.3117 3.486 24.1477 3.486C23.9837 3.486 23.8397 3.532 23.7157 3.624C23.5917 3.712 23.4957 3.83 23.4277 3.978C23.3597 4.122 23.3257 4.278 23.3257 4.446C23.3257 4.618 23.3637 4.776 23.4397 4.92C23.5157 5.06 23.6177 5.172 23.7457 5.256C23.8777 5.336 24.0277 5.376 24.1957 5.376C24.3477 5.376 24.4977 5.326 24.6457 5.226C24.7977 5.126 24.9017 5 24.9577 4.848ZM30.0202 6.06C29.7802 6.06 29.5662 6.006 29.3782 5.898C29.1902 5.79 29.0422 5.642 28.9342 5.454V6H28.2322V1.62H29.0362V3.408C29.1482 3.22 29.2942 3.072 29.4742 2.964C29.6582 2.856 29.8722 2.802 30.1162 2.802C30.3882 2.802 30.6262 2.878 30.8302 3.03C31.0382 3.178 31.2002 3.376 31.3162 3.624C31.4322 3.872 31.4902 4.144 31.4902 4.44C31.4902 4.744 31.4262 5.018 31.2982 5.262C31.1702 5.506 30.9942 5.7 30.7702 5.844C30.5502 5.988 30.3002 6.06 30.0202 6.06ZM29.7982 5.376C29.9702 5.376 30.1202 5.334 30.2482 5.25C30.3802 5.166 30.4822 5.054 30.5542 4.914C30.6302 4.77 30.6682 4.614 30.6682 4.446C30.6682 4.274 30.6322 4.116 30.5602 3.972C30.4922 3.824 30.3962 3.706 30.2722 3.618C30.1482 3.53 30.0062 3.486 29.8462 3.486C29.6702 3.486 29.5082 3.546 29.3602 3.666C29.2162 3.782 29.1082 3.926 29.0362 4.098V4.848C29.0882 5.004 29.1902 5.132 29.3422 5.232C29.4942 5.328 29.6462 5.376 29.7982 5.376ZM32.1155 6.612C32.2635 6.652 32.3835 6.672 32.4755 6.672C32.5835 6.672 32.6695 6.626 32.7335 6.534C32.8015 6.446 32.8775 6.268 32.9615 6L31.7195 2.856H32.5535L33.3995 5.178L34.1435 2.856H34.9115L33.5915 6.624C33.5195 6.84 33.3895 7.018 33.2015 7.158C33.0175 7.302 32.7895 7.374 32.5175 7.374C32.3855 7.374 32.2515 7.352 32.1155 7.308V6.612Z" fill="white"/>
<g clip-path="url(#clip0)">
<path d="M4.73009 9.48047H7.08931V15.1684C7.08931 16.1361 6.93967 16.8629 6.62679 17.3662C6.01464 18.3573 4.97884 18.948 3.58158 18.948C2.80813 18.948 2.14545 18.7964 1.60909 18.4836C0.524702 17.8442 0 16.9776 0 15.182V9.48047H2.35922V15.1431C2.35922 16.2994 2.72068 16.8629 3.55826 16.8629C4.35697 16.8629 4.73204 16.4606 4.73204 15.1548V9.48047H4.73009Z" fill="white"/>
<path d="M12.9957 18.773V14.9059C12.9957 13.9634 12.6712 13.5242 11.9094 13.5242C11.0737 13.5242 10.7239 13.9887 10.7239 14.9312V18.773H8.65039V11.8045H10.586V12.5448H10.6112C11.0485 11.8297 11.6606 11.5654 12.4963 11.5654C13.7439 11.5654 15.0673 12.2689 15.0673 14.3287V18.7749H12.9957V18.773Z" fill="white"/>
<path d="M18.4759 11.8037H16.4043V18.7742H18.4759V11.8037Z" fill="white"/>
<path d="M50.515 11.8037H48.4434V18.7742H50.515V11.8037Z" fill="white"/>
<path d="M24.0411 18.7722V13.3855H22.2552V18.7722H20.1836V13.3855H19.4102V11.8037H20.1836V11.4656C20.1836 10.0723 20.9201 9.30664 22.8674 9.30664H23.1414V10.8768H22.9917C22.467 10.8768 22.2552 11.1275 22.2552 11.5803V11.8057H26.1127V18.7761H24.0411V18.7722Z" fill="white"/>
<path d="M32.4542 14.5172C32.291 13.8021 31.6671 13.3241 30.8684 13.3241C30.1183 13.3241 29.4692 13.7769 29.3079 14.5172H32.4542ZM29.2827 15.9242C29.3954 16.7151 30.0561 17.2417 30.9053 17.2417C31.467 17.2417 31.8284 17.0279 32.1666 16.5887H34.2887C33.628 18.1084 32.3667 19.0003 30.9053 19.0003C28.9076 19.0003 27.2344 17.3797 27.2344 15.3081C27.2344 13.2988 28.8318 11.5654 30.8665 11.5654C32.9381 11.5654 34.5239 13.2114 34.5239 15.3703C34.5239 15.5705 34.5102 15.7337 34.4733 15.9222H29.2827V15.9242Z" fill="white"/>
<path d="M40.9289 15.2578C40.9289 14.292 40.1924 13.5127 39.1683 13.5127C38.1947 13.5127 37.4212 14.2414 37.4212 15.2578C37.4212 16.313 38.1577 17.0533 39.1566 17.0533C40.1672 17.0533 40.9289 16.2877 40.9289 15.2578ZM40.9173 18.7731V18.0191H40.892C40.5053 18.6604 39.8057 18.9985 38.8204 18.9985C36.7236 18.9985 35.3496 17.3779 35.3496 15.2694C35.3496 13.1843 36.7605 11.5656 38.7835 11.5656C39.5822 11.5656 40.2313 11.8046 40.8182 12.3954V9.48047H42.8898V18.7731H40.9173Z" fill="white"/>
<path d="M55.6566 16.69C57.0169 16.69 57.8662 15.8349 57.8662 14.1404C57.8662 12.4828 57.0305 11.5656 55.6683 11.5656H54.5955V16.69H55.6566ZM52.2363 18.7731V9.48047H55.3826C56.5311 9.48047 57.4425 9.68062 58.0916 10.046C59.4014 10.7999 60.2254 12.2302 60.2254 14.1268C60.2254 17.1913 58.4278 18.7731 55.5439 18.7731H52.2363Z" fill="white"/>
<path d="M50.6213 10.1465C50.6213 10.78 50.1102 11.293 49.4806 11.293C48.8509 11.293 48.3398 10.78 48.3398 10.1465C48.3398 9.51302 48.8509 9 49.4806 9C50.1122 9 50.6213 9.51302 50.6213 10.1465Z" fill="#78CC00"/>
<path d="M25.2345 11.295C24.6048 11.295 24.0938 10.782 24.0938 10.1485C24.0938 9.51497 24.6048 9.00195 25.2345 9.00195C25.8641 9.00195 26.3752 9.51497 26.3752 10.1485C26.3752 10.78 25.8641 11.295 25.2345 11.295Z" fill="#78CC00"/>
<path d="M18.5803 10.1465C18.5803 10.78 18.0692 11.293 17.4396 11.293C16.8099 11.293 16.2988 10.78 16.2988 10.1465C16.2988 9.51302 16.8099 9 17.4396 9C18.0692 9 18.5803 9.51302 18.5803 10.1465Z" fill="#78CC00"/>
<path d="M61.2967 18.646V17.9911C61.699 17.7288 61.9924 17.5053 62.1732 17.3188C62.5444 16.9398 62.7484 16.6017 62.7484 16.3472C62.7484 16.1548 62.6201 16.0265 62.4394 16.0265C62.2101 16.0265 62.0818 16.1917 62.0624 16.5473H61.2656C61.2656 15.7778 61.7398 15.2861 62.4705 15.2861C63.139 15.2861 63.586 15.7234 63.586 16.2442C63.586 16.7708 63.2984 17.2469 62.4977 17.9367H63.6093V18.6441H61.2967V18.646Z" fill="#78CC00"/>
<path d="M67.4994 17.4742C67.4994 18.236 66.9417 18.7082 66.2907 18.7082C65.6357 18.7082 65.0547 18.2321 65.0547 17.4742V16.5085C65.0547 15.7253 65.6707 15.2881 66.2809 15.2881C66.9397 15.2881 67.4975 15.7681 67.4975 16.4987V17.4742H67.4994ZM66.6618 16.5046C66.6618 16.215 66.5413 16.0285 66.277 16.0285C66.0283 16.0285 65.8923 16.2247 65.8923 16.5046V17.4937C65.8923 17.7793 66.0302 17.9698 66.277 17.9698C66.5433 17.9698 66.6618 17.7832 66.6618 17.4937V16.5046Z" fill="#78CC00"/>
<path d="M64.8978 18.2829C64.8978 18.5335 64.6957 18.7356 64.447 18.7356C64.1982 18.7356 63.9961 18.5335 63.9961 18.2829C63.9961 18.0322 64.1982 17.8301 64.447 17.8301C64.6976 17.8301 64.8978 18.0341 64.8978 18.2829Z" fill="#78CC00"/>
</g>
<defs>
<clipPath id="clip0">
<rect width="67.5" height="10" fill="white" transform="translate(0 9)"/>
</clipPath>
</defs>
</svg>
